<svg width="15" height="22" viewBox="0 0 15 22" fill="none" xmlns="http://www.w3.org/2000/svg">
<mask id="path-1-outside-1_7_170" maskUnits="userSpaceOnUse" x="-10" y="-6" width="31" height="34" fill="black">
<rect fill="white" x="-10" y="-6" width="31" height="34"/>
<path d="M14.7471 19.7734V22H0.787109V20.0518L7.77441 12.2734C8.63379 11.3164 9.29785 10.5059 9.7666 9.8418C10.2451 9.16797 10.5771 8.56738 10.7627 8.04004C10.958 7.50293 11.0557 6.95605 11.0557 6.39941C11.0557 5.69629 10.9092 5.06152 10.6162 4.49512C10.333 3.91895 9.91309 3.45996 9.35645 3.11816C8.7998 2.77637 8.12598 2.60547 7.33496 2.60547C6.3877 2.60547 5.59668 2.79102 4.96191 3.16211C4.33691 3.52344 3.86816 4.03125 3.55566 4.68555C3.24316 5.33984 3.08691 6.0918 3.08691 6.94141H0.376953C0.376953 5.74023 0.640625 4.6416 1.16797 3.64551C1.69531 2.64941 2.47656 1.8584 3.51172 1.27246C4.54688 0.676758 5.82129 0.378906 7.33496 0.378906C8.68262 0.378906 9.83496 0.618164 10.792 1.09668C11.749 1.56543 12.4814 2.22949 12.9893 3.08887C13.5068 3.93848 13.7656 4.93457 13.7656 6.07715C13.7656 6.70215 13.6582 7.33691 13.4434 7.98145C13.2383 8.61621 12.9502 9.25098 12.5791 9.88574C12.2178 10.5205 11.793 11.1455 11.3047 11.7607C10.8262 12.376 10.3135 12.9814 9.7666 13.5771L4.05371 19.7734H14.7471Z"/>
</mask>
<path d="M14.7471 19.7734V22H0.787109V20.0518L7.77441 12.2734C8.63379 11.3164 9.29785 10.5059 9.7666 9.8418C10.2451 9.16797 10.5771 8.56738 10.7627 8.04004C10.958 7.50293 11.0557 6.95605 11.0557 6.39941C11.0557 5.69629 10.9092 5.06152 10.6162 4.49512C10.333 3.91895 9.91309 3.45996 9.35645 3.11816C8.7998 2.77637 8.12598 2.60547 7.33496 2.60547C6.3877 2.60547 5.59668 2.79102 4.96191 3.16211C4.33691 3.52344 3.86816 4.03125 3.55566 4.68555C3.24316 5.33984 3.08691 6.0918 3.08691 6.94141H0.376953C0.376953 5.74023 0.640625 4.6416 1.16797 3.64551C1.69531 2.64941 2.47656 1.8584 3.51172 1.27246C4.54688 0.676758 5.82129 0.378906 7.33496 0.378906C8.68262 0.378906 9.83496 0.618164 10.792 1.09668C11.749 1.56543 12.4814 2.22949 12.9893 3.08887C13.5068 3.93848 13.7656 4.93457 13.7656 6.07715C13.7656 6.70215 13.6582 7.33691 13.4434 7.98145C13.2383 8.61621 12.9502 9.25098 12.5791 9.88574C12.2178 10.5205 11.793 11.1455 11.3047 11.7607C10.8262 12.376 10.3135 12.9814 9.7666 13.5771L4.05371 19.7734H14.7471Z" fill="white"/>
<path d="M14.7471 19.7734H20.7471V13.7734H14.7471V19.7734ZM14.7471 22V28H20.7471V22H14.7471ZM0.787109 22H-5.21289V28H0.787109V22ZM0.787109 20.0518L-3.67642 16.0422L-5.21289 17.7526V20.0518H0.787109ZM7.77441 12.2734L12.2379 16.283L12.2387 16.2822L7.77441 12.2734ZM9.7666 9.8418L4.87464 6.36779L4.86971 6.37474L4.86479 6.3817L9.7666 9.8418ZM10.7627 8.04004L5.12393 5.98958L5.11322 6.01904L5.10282 6.0486L10.7627 8.04004ZM10.6162 4.49512L5.23152 7.14183L5.25865 7.19703L5.28691 7.25165L10.6162 4.49512ZM4.96191 3.16211L7.96493 8.35652L7.97753 8.34923L7.99009 8.34189L4.96191 3.16211ZM3.08691 6.94141V12.9414H9.08691V6.94141H3.08691ZM0.376953 6.94141H-5.62305V12.9414H0.376953V6.94141ZM3.51172 1.27246L6.46731 6.494L6.48589 6.48349L6.50439 6.47284L3.51172 1.27246ZM10.792 1.09668L8.10871 6.46324L8.1307 6.47424L8.15279 6.48506L10.792 1.09668ZM12.9893 3.08887L7.8237 6.14124L7.84422 6.17597L7.8652 6.21042L12.9893 3.08887ZM13.4434 7.98145L7.75126 6.08408L7.74248 6.11043L7.73394 6.13686L13.4434 7.98145ZM12.5791 9.88574L7.39932 6.85756L7.38184 6.88746L7.36471 6.91755L12.5791 9.88574ZM11.3047 11.7607L6.60495 8.0308L6.58665 8.05386L6.56857 8.0771L11.3047 11.7607ZM9.7666 13.5771L14.1778 17.6442L14.1865 17.6348L9.7666 13.5771ZM4.05371 19.7734L-0.357508 15.7064L-9.63921 25.7734H4.05371V19.7734ZM8.74707 19.7734V22H20.7471V19.7734H8.74707ZM14.7471 16H0.787109V28H14.7471V16ZM6.78711 22V20.0518H-5.21289V22H6.78711ZM5.25063 24.0614L12.2379 16.283L3.31089 8.26383L-3.67642 16.0422L5.25063 24.0614ZM12.2387 16.2822C13.1758 15.2386 14.0105 14.234 14.6684 13.3019L4.86479 6.3817C4.58522 6.77776 4.09178 7.3942 3.31012 8.26469L12.2387 16.2822ZM14.6586 13.3158C15.3219 12.3818 15.9857 11.273 16.4226 10.0315L5.10282 6.0486C5.14235 5.93626 5.16299 5.91164 5.12354 5.98301C5.08568 6.05149 5.00894 6.17867 4.87464 6.36779L14.6586 13.3158ZM16.4015 10.0905C16.8293 8.91403 17.0557 7.67412 17.0557 6.39941H5.05566C5.05566 6.23799 5.08675 6.09183 5.12393 5.98958L16.4015 10.0905ZM17.0557 6.39941C17.0557 4.83719 16.723 3.24172 15.9455 1.73858L5.28691 7.25165C5.09536 6.88133 5.05566 6.55539 5.05566 6.39941H17.0557ZM16.0009 1.8484C15.2083 0.235869 14.0013 -1.0706 12.496 -1.99486L6.21687 8.23119C6.04255 8.12415 5.84799 7.97208 5.66203 7.76883C5.47556 7.56501 5.33292 7.34813 5.23152 7.14183L16.0009 1.8484ZM12.496 -1.99486C10.8131 -3.02826 8.99962 -3.39453 7.33496 -3.39453V8.60547C7.25233 8.60547 6.78654 8.58099 6.21687 8.23119L12.496 -1.99486ZM7.33496 -3.39453C5.62391 -3.39453 3.71595 -3.05958 1.93373 -2.01767L7.99009 8.34189C7.47741 8.64161 7.15149 8.60547 7.33496 8.60547V-3.39453ZM1.9589 -2.0323C0.280404 -1.06192 -1.02645 0.357555 -1.85851 2.09967L8.96984 7.27142C8.87995 7.45962 8.74323 7.67477 8.55042 7.88365C8.35745 8.0927 8.15148 8.24867 7.96493 8.35652L1.9589 -2.0323ZM-1.85851 2.09967C-2.61749 3.68879 -2.91309 5.34966 -2.91309 6.94141H9.08691C9.08691 6.88396 9.0922 6.89556 9.07862 6.96091C9.06447 7.02902 9.03321 7.13873 8.96984 7.27142L-1.85851 2.09967ZM3.08691 0.941406H0.376953V12.9414H3.08691V0.941406ZM6.37695 6.94141C6.37695 6.65268 6.43125 6.52735 6.4707 6.45283L-4.13476 0.838181C-5.15 2.75585 -5.62305 4.82779 -5.62305 6.94141H6.37695ZM6.4707 6.45283C6.46906 6.45593 6.46303 6.46661 6.45204 6.48163C6.44099 6.49672 6.42911 6.51047 6.41832 6.52138C6.40766 6.53218 6.40279 6.53543 6.40759 6.53179C6.41263 6.52797 6.431 6.51456 6.46731 6.494L0.556129 -3.94908C-1.41791 -2.8317 -3.04121 -1.22742 -4.13476 0.838181L6.4707 6.45283ZM6.50439 6.47284C6.41647 6.52344 6.59548 6.37891 7.33496 6.37891V-5.62109C5.0471 -5.62109 2.67728 -5.16992 0.519049 -3.92792L6.50439 6.47284ZM7.33496 6.37891C7.98671 6.37891 8.17263 6.4952 8.10871 6.46324L13.4753 -4.26988C11.4973 -5.25887 9.37852 -5.62109 7.33496 -5.62109V6.37891ZM8.15279 6.48506C8.1649 6.49099 8.11097 6.46566 8.02895 6.39129C7.94457 6.31479 7.87322 6.22504 7.8237 6.14124L18.1548 0.0364913C17.0101 -1.90068 15.3658 -3.34415 13.4312 -4.2917L8.15279 6.48506ZM7.8652 6.21042C7.83852 6.16661 7.81608 6.12225 7.79828 6.07992C7.78055 6.03778 7.77005 6.00392 7.76432 5.98188C7.75253 5.9365 7.76562 5.95969 7.76562 6.07715H19.7656C19.7656 4.00007 19.2847 1.89019 18.1133 -0.0326827L7.8652 6.21042ZM7.76562 6.07715C7.76562 6.0613 7.76632 6.04808 7.76718 6.03795C7.76804 6.02785 7.76897 6.02201 7.76917 6.02082C7.76966 6.01795 7.76651 6.03833 7.75126 6.08408L19.1355 9.87881C19.5365 8.6756 19.7656 7.40074 19.7656 6.07715H7.76562ZM7.73394 6.13686C7.67489 6.31962 7.57362 6.55942 7.39932 6.85756L17.7589 12.9139C18.3268 11.9425 18.8017 10.9128 19.1528 9.82603L7.73394 6.13686ZM7.36471 6.91755C7.16608 7.26651 6.91663 7.63809 6.60495 8.0308L16.0044 15.4907C16.6693 14.6529 17.2695 13.7745 17.7935 12.8539L7.36471 6.91755ZM6.56857 8.0771C6.19399 8.55871 5.78723 9.03965 5.34669 9.51952L14.1865 17.6348C14.8397 16.9232 15.4584 16.1932 16.0408 15.4444L6.56857 8.0771ZM5.35538 9.51007L-0.357508 15.7064L8.46493 23.8405L14.1778 17.6442L5.35538 9.51007ZM4.05371 25.7734H14.7471V13.7734H4.05371V25.7734Z" fill="black" fill-opacity="0.1" mask="url(#path-1-outside-1_7_170)"/>
</svg>
