<svg width="14" height="23" viewBox="0 0 14 23" fill="none" xmlns="http://www.w3.org/2000/svg">
<mask id="path-1-outside-1_7_171" maskUnits="userSpaceOnUse" x="-6" y="-6" width="26" height="35" fill="black">
<rect fill="white" x="-6" y="-6" width="26" height="35"/>
<path d="M4.72754 10.0029H6.66113C7.6084 10.0029 8.38965 9.84668 9.00488 9.53418C9.62988 9.21191 10.0938 8.77734 10.3965 8.23047C10.709 7.67383 10.8652 7.04883 10.8652 6.35547C10.8652 5.53516 10.7285 4.84668 10.4551 4.29004C10.1816 3.7334 9.77148 3.31348 9.22461 3.03027C8.67773 2.74707 7.98438 2.60547 7.14453 2.60547C6.38281 2.60547 5.70898 2.75684 5.12305 3.05957C4.54688 3.35254 4.09277 3.77246 3.76074 4.31934C3.43848 4.86621 3.27734 5.51074 3.27734 6.25293H0.567383C0.567383 5.16895 0.84082 4.18262 1.3877 3.29395C1.93457 2.40527 2.70117 1.69727 3.6875 1.16992C4.68359 0.642578 5.83594 0.378906 7.14453 0.378906C8.43359 0.378906 9.56152 0.608398 10.5283 1.06738C11.4951 1.5166 12.2471 2.19043 12.7842 3.08887C13.3213 3.97754 13.5898 5.08594 13.5898 6.41406C13.5898 6.95117 13.4629 7.52734 13.209 8.14258C12.9648 8.74805 12.5791 9.31445 12.0518 9.8418C11.5342 10.3691 10.8604 10.8037 10.0303 11.1455C9.2002 11.4775 8.2041 11.6436 7.04199 11.6436H4.72754V10.0029ZM4.72754 12.2295V10.6035H7.04199C8.39941 10.6035 9.52246 10.7646 10.4111 11.0869C11.2998 11.4092 11.998 11.8389 12.5059 12.376C13.0234 12.9131 13.3848 13.5039 13.5898 14.1484C13.8047 14.7832 13.9121 15.418 13.9121 16.0527C13.9121 17.0488 13.7412 17.9326 13.3994 18.7041C13.0674 19.4756 12.5938 20.1299 11.9785 20.667C11.373 21.2041 10.6602 21.6094 9.83984 21.8828C9.01953 22.1562 8.12598 22.293 7.15918 22.293C6.23145 22.293 5.35742 22.1611 4.53711 21.8975C3.72656 21.6338 3.00879 21.2529 2.38379 20.7549C1.75879 20.2471 1.27051 19.627 0.918945 18.8945C0.567383 18.1523 0.391602 17.3076 0.391602 16.3604H3.10156C3.10156 17.1025 3.2627 17.752 3.58496 18.3086C3.91699 18.8652 4.38574 19.2998 4.99121 19.6123C5.60645 19.915 6.3291 20.0664 7.15918 20.0664C7.98926 20.0664 8.70215 19.9248 9.29785 19.6416C9.90332 19.3486 10.3672 18.9092 10.6895 18.3232C11.0215 17.7373 11.1875 17 11.1875 16.1113C11.1875 15.2227 11.002 14.4951 10.6309 13.9287C10.2598 13.3525 9.73242 12.9277 9.04883 12.6543C8.375 12.3711 7.5791 12.2295 6.66113 12.2295H4.72754Z"/>
</mask>
<path d="M4.72754 10.0029H6.66113C7.6084 10.0029 8.38965 9.84668 9.00488 9.53418C9.62988 9.21191 10.0938 8.77734 10.3965 8.23047C10.709 7.67383 10.8652 7.04883 10.8652 6.35547C10.8652 5.53516 10.7285 4.84668 10.4551 4.29004C10.1816 3.7334 9.77148 3.31348 9.22461 3.03027C8.67773 2.74707 7.98438 2.60547 7.14453 2.60547C6.38281 2.60547 5.70898 2.75684 5.12305 3.05957C4.54688 3.35254 4.09277 3.77246 3.76074 4.31934C3.43848 4.86621 3.27734 5.51074 3.27734 6.25293H0.567383C0.567383 5.16895 0.84082 4.18262 1.3877 3.29395C1.93457 2.40527 2.70117 1.69727 3.6875 1.16992C4.68359 0.642578 5.83594 0.378906 7.14453 0.378906C8.43359 0.378906 9.56152 0.608398 10.5283 1.06738C11.4951 1.5166 12.2471 2.19043 12.7842 3.08887C13.3213 3.97754 13.5898 5.08594 13.5898 6.41406C13.5898 6.95117 13.4629 7.52734 13.209 8.14258C12.9648 8.74805 12.5791 9.31445 12.0518 9.8418C11.5342 10.3691 10.8604 10.8037 10.0303 11.1455C9.2002 11.4775 8.2041 11.6436 7.04199 11.6436H4.72754V10.0029ZM4.72754 12.2295V10.6035H7.04199C8.39941 10.6035 9.52246 10.7646 10.4111 11.0869C11.2998 11.4092 11.998 11.8389 12.5059 12.376C13.0234 12.9131 13.3848 13.5039 13.5898 14.1484C13.8047 14.7832 13.9121 15.418 13.9121 16.0527C13.9121 17.0488 13.7412 17.9326 13.3994 18.7041C13.0674 19.4756 12.5938 20.1299 11.9785 20.667C11.373 21.2041 10.6602 21.6094 9.83984 21.8828C9.01953 22.1562 8.12598 22.293 7.15918 22.293C6.23145 22.293 5.35742 22.1611 4.53711 21.8975C3.72656 21.6338 3.00879 21.2529 2.38379 20.7549C1.75879 20.2471 1.27051 19.627 0.918945 18.8945C0.567383 18.1523 0.391602 17.3076 0.391602 16.3604H3.10156C3.10156 17.1025 3.2627 17.752 3.58496 18.3086C3.91699 18.8652 4.38574 19.2998 4.99121 19.6123C5.60645 19.915 6.3291 20.0664 7.15918 20.0664C7.98926 20.0664 8.70215 19.9248 9.29785 19.6416C9.90332 19.3486 10.3672 18.9092 10.6895 18.3232C11.0215 17.7373 11.1875 17 11.1875 16.1113C11.1875 15.2227 11.002 14.4951 10.6309 13.9287C10.2598 13.3525 9.73242 12.9277 9.04883 12.6543C8.375 12.3711 7.5791 12.2295 6.66113 12.2295H4.72754Z" fill="white"/>
<path d="M4.72754 10.0029V4.00293H-1.27246V10.0029H4.72754ZM9.00488 9.53418L11.7221 14.8837L11.7384 14.8754L11.7546 14.867L9.00488 9.53418ZM10.3965 8.23047L5.16458 5.29326L5.15581 5.30889L5.14713 5.32457L10.3965 8.23047ZM5.12305 3.05957L7.84253 8.40788L7.85988 8.39906L7.87717 8.39013L5.12305 3.05957ZM3.76074 4.31934L-1.36798 1.20547L-1.38846 1.23919L-1.40849 1.27318L3.76074 4.31934ZM3.27734 6.25293V12.2529H9.27734V6.25293H3.27734ZM0.567383 6.25293H-5.43262V12.2529H0.567383V6.25293ZM3.6875 1.16992L0.880174 -4.13281L0.869342 -4.12707L0.858534 -4.12129L3.6875 1.16992ZM10.5283 1.06738L7.9551 6.48758L7.97752 6.49823L8.00004 6.50869L10.5283 1.06738ZM12.7842 3.08887L7.63429 6.16761L7.64172 6.18003L7.64921 6.19242L12.7842 3.08887ZM13.209 8.14258L7.66274 5.85365L7.65345 5.87617L7.64434 5.89877L13.209 8.14258ZM12.0518 9.8418L7.80912 5.59916L7.78929 5.61898L7.76965 5.63899L12.0518 9.8418ZM10.0303 11.1455L12.2586 16.7164L12.2868 16.7051L12.3148 16.6936L10.0303 11.1455ZM4.72754 11.6436H-1.27246V17.6436H4.72754V11.6436ZM4.72754 12.2295H-1.27246V18.2295H4.72754V12.2295ZM4.72754 10.6035V4.60352H-1.27246V10.6035H4.72754ZM12.5059 12.376L8.14598 16.498L8.16559 16.5188L8.18539 16.5393L12.5059 12.376ZM13.5898 14.1484L7.87229 15.9677L7.88894 16.02L7.90655 16.072L13.5898 14.1484ZM13.3994 18.7041L7.91368 16.2737L7.90077 16.3029L7.88816 16.3322L13.3994 18.7041ZM11.9785 20.667L8.03257 16.1471L8.01464 16.1627L7.99683 16.1785L11.9785 20.667ZM4.53711 21.8975L2.68104 27.6032L2.69104 27.6064L2.70105 27.6096L4.53711 21.8975ZM2.38379 20.7549L-1.39977 25.4116L-1.37768 25.4295L-1.35543 25.4472L2.38379 20.7549ZM0.918945 18.8945L-4.50348 21.463L-4.49687 21.477L-4.49019 21.4909L0.918945 18.8945ZM0.391602 16.3604V10.3604H-5.6084V16.3604H0.391602ZM3.10156 16.3604H9.10156V10.3604H3.10156V16.3604ZM3.58496 18.3086L-1.6076 21.3148L-1.588 21.3487L-1.56796 21.3823L3.58496 18.3086ZM4.99121 19.6123L2.23935 24.944L2.29051 24.9704L2.34216 24.9958L4.99121 19.6123ZM9.29785 19.6416L11.874 25.0604L11.8926 25.0515L11.9112 25.0426L9.29785 19.6416ZM10.6895 18.3232L5.46932 15.3652L5.45053 15.3983L5.43216 15.4317L10.6895 18.3232ZM10.6309 13.9287L5.58657 17.1776L5.59925 17.1973L5.61209 17.2169L10.6309 13.9287ZM9.04883 12.6543L6.72407 18.1856L6.77211 18.2058L6.82048 18.2252L9.04883 12.6543ZM4.72754 16.0029H6.66113V4.00293H4.72754V16.0029ZM6.66113 16.0029C8.21926 16.0029 10.0109 15.7528 11.7221 14.8837L6.28769 4.18471C6.53518 4.059 6.71674 4.01507 6.78082 4.00226C6.84211 3.99 6.81133 4.00293 6.66113 4.00293V16.0029ZM11.7546 14.867C13.2981 14.0712 14.6982 12.8483 15.6458 11.1364L5.14713 5.32457C5.30414 5.04094 5.50226 4.79133 5.71942 4.58789C5.93241 4.38835 6.12666 4.26761 6.25515 4.20136L11.7546 14.867ZM15.6284 11.1677C16.4873 9.63774 16.8652 7.98641 16.8652 6.35547H4.86523C4.86523 6.24869 4.87766 6.08715 4.92719 5.88902C4.97736 5.68834 5.05703 5.48484 5.16458 5.29326L15.6284 11.1677ZM16.8652 6.35547C16.8652 4.90137 16.627 3.24583 15.8404 1.64462L5.06975 6.93546C4.83007 6.44753 4.86523 6.16895 4.86523 6.35547H16.8652ZM15.8404 1.64462C15.0053 -0.0553763 13.679 -1.41978 11.9837 -2.29769L6.46548 8.35824C6.19872 8.22009 5.91387 8.02008 5.65013 7.75005C5.3867 7.48036 5.19727 7.19505 5.06975 6.93546L15.8404 1.64462ZM11.9837 -2.29769C10.3314 -3.15336 8.61252 -3.39453 7.14453 -3.39453V8.60547C7.23357 8.60547 7.20738 8.61351 7.09386 8.59033C6.9771 8.56648 6.75046 8.50582 6.46548 8.35824L11.9837 -2.29769ZM7.14453 -3.39453C5.57353 -3.39453 3.92949 -3.07728 2.36893 -2.27099L7.87717 8.39013C7.48847 8.59095 7.19209 8.60547 7.14453 8.60547V-3.39453ZM2.40357 -2.28874C0.842896 -1.49518 -0.450149 -0.30626 -1.36798 1.20547L8.88947 7.4332C8.77563 7.6207 8.62096 7.81725 8.42396 7.99942C8.22728 8.1813 8.02483 8.31518 7.84253 8.40788L2.40357 -2.28874ZM-1.40849 1.27318C-2.36073 2.8891 -2.72266 4.62267 -2.72266 6.25293H9.27734C9.27734 6.39882 9.23768 6.84332 8.92997 7.36549L-1.40849 1.27318ZM3.27734 0.25293H0.567383V12.2529H3.27734V0.25293ZM6.56738 6.25293C6.56738 6.22067 6.57068 6.24433 6.55439 6.30311C6.54688 6.3302 6.5371 6.35774 6.52575 6.38367C6.51445 6.40951 6.50407 6.42809 6.49765 6.43853L-3.72225 0.149361C-4.87433 2.02149 -5.43262 4.10384 -5.43262 6.25293H6.56738ZM6.49765 6.43853C6.49233 6.44716 6.48392 6.45941 6.47268 6.47308C6.46144 6.48674 6.45106 6.49734 6.44365 6.50418C6.43636 6.51091 6.4358 6.51046 6.4453 6.50376C6.455 6.49692 6.47747 6.48199 6.51647 6.46114L0.858534 -4.12129C-0.995044 -3.13027 -2.5785 -1.70924 -3.72225 0.149361L6.49765 6.43853ZM6.49483 6.47265C6.49621 6.47192 6.65633 6.37891 7.14453 6.37891V-5.62109C5.01554 -5.62109 2.87098 -5.18676 0.880174 -4.13281L6.49483 6.47265ZM7.14453 6.37891C7.72277 6.37891 7.94004 6.48043 7.9551 6.48758L13.1015 -4.35281C11.183 -5.26363 9.14442 -5.62109 7.14453 -5.62109V6.37891ZM8.00004 6.50869C7.97621 6.49762 7.90251 6.45809 7.81322 6.37808C7.72321 6.29742 7.66409 6.21745 7.63429 6.16761L17.9341 0.0101285C16.7677 -1.94095 15.0929 -3.42776 13.0566 -4.37392L8.00004 6.50869ZM7.64921 6.19242C7.57111 6.06321 7.55314 5.983 7.55715 5.99953C7.56278 6.02276 7.58984 6.15006 7.58984 6.41406H19.5898C19.5898 4.29249 19.1597 2.03787 17.9192 -0.0146878L7.64921 6.19242ZM7.58984 6.41406C7.58984 6.00242 7.68644 5.79623 7.66274 5.85365L18.7552 10.4315C19.2393 9.25846 19.5898 7.89992 19.5898 6.41406H7.58984ZM7.64434 5.89877C7.69069 5.78381 7.74042 5.69842 7.7774 5.64412C7.81338 5.59128 7.83047 5.5778 7.80912 5.59916L16.2944 14.0844C17.3116 13.0673 18.1877 11.8394 18.7736 10.3864L7.64434 5.89877ZM7.76965 5.63899C7.80785 5.60007 7.84072 5.57127 7.86515 5.55154C7.88944 5.53193 7.90419 5.52226 7.90627 5.52092C7.90961 5.51876 7.863 5.54917 7.74577 5.59744L12.3148 16.6936C13.7375 16.1078 15.14 15.261 16.3339 14.0446L7.76965 5.63899ZM7.80193 5.57465C7.85807 5.55219 7.65862 5.64355 7.04199 5.64355V17.6436C8.74958 17.6436 10.5423 17.4029 12.2586 16.7164L7.80193 5.57465ZM7.04199 5.64355H4.72754V17.6436H7.04199V5.64355ZM10.7275 11.6436V10.0029H-1.27246V11.6436H10.7275ZM10.7275 12.2295V10.6035H-1.27246V12.2295H10.7275ZM4.72754 16.6035H7.04199V4.60352H4.72754V16.6035ZM7.04199 16.6035C7.48906 16.6035 7.81933 16.6304 8.0502 16.6635C8.28281 16.6969 8.37548 16.731 8.36565 16.7275L12.4566 5.44635C10.6936 4.80703 8.81879 4.60352 7.04199 4.60352V16.6035ZM8.36565 16.7275C8.6129 16.8171 8.43451 16.8032 8.14598 16.498L16.8657 8.25391C15.5616 6.87451 13.9867 6.00122 12.4566 5.44635L8.36565 16.7275ZM8.18539 16.5393C8.16443 16.5176 8.11016 16.4566 8.04639 16.3523C7.9815 16.2462 7.91944 16.1159 7.87229 15.9677L19.3074 12.3292C18.7951 10.7192 17.9168 9.34424 16.8263 8.21262L8.18539 16.5393ZM7.90655 16.072C7.91155 16.0868 7.91415 16.0963 7.91528 16.1008C7.91641 16.1052 7.91628 16.1054 7.91566 16.1017C7.91503 16.098 7.91409 16.0915 7.91333 16.0825C7.91257 16.0736 7.91211 16.0635 7.91211 16.0527H19.9121C19.9121 14.7281 19.6859 13.4445 19.2731 12.2249L7.90655 16.072ZM7.91211 16.0527C7.91211 16.2084 7.89872 16.2943 7.89306 16.3235C7.88783 16.3506 7.8895 16.3283 7.91368 16.2737L18.8851 21.1345C19.6216 19.4721 19.9121 17.7368 19.9121 16.0527H7.91211ZM7.88816 16.3322C7.88945 16.3292 7.9032 16.299 7.93492 16.2552C7.96699 16.2109 8.00236 16.1735 8.03257 16.1471L15.9245 25.1869C17.235 24.0428 18.2344 22.6474 18.9107 21.076L7.88816 16.3322ZM7.99683 16.1785C8.00283 16.1732 8.00917 16.1682 8.01513 16.1639C8.02107 16.1597 8.02457 16.1577 8.02446 16.1577C8.0243 16.1578 8.01869 16.161 8.00621 16.1665C7.99367 16.1721 7.97291 16.1806 7.94248 16.1907L11.7372 27.5749C13.2732 27.0629 14.7078 26.2665 15.9602 25.1554L7.99683 16.1785ZM7.94248 16.1907C7.80159 16.2377 7.55645 16.293 7.15918 16.293V28.293C8.6955 28.293 10.2375 28.0748 11.7372 27.5749L7.94248 16.1907ZM7.15918 16.293C6.80695 16.293 6.55631 16.2442 6.37316 16.1853L2.70105 27.6096C4.15853 28.0781 5.65594 28.293 7.15918 28.293V16.293ZM6.39318 16.1918C6.22015 16.1355 6.14956 16.0837 6.12301 16.0625L-1.35543 25.4472C-0.131977 26.4222 1.23297 27.1321 2.68104 27.6032L6.39318 16.1918ZM6.16735 16.0982C6.19196 16.1182 6.22718 16.1518 6.26287 16.1971C6.29845 16.2423 6.3193 16.2798 6.32808 16.2981L-4.49019 21.4909C-3.75896 23.0143 -2.7183 24.3403 -1.39977 25.4116L6.16735 16.0982ZM6.34137 16.326C6.35944 16.3642 6.3727 16.3983 6.38208 16.4266C6.39141 16.4546 6.3959 16.4738 6.3976 16.482C6.40107 16.4986 6.3916 16.4628 6.3916 16.3604H-5.6084C-5.6084 18.0599 -5.28958 19.8035 -4.50348 21.463L6.34137 16.326ZM0.391602 22.3604H3.10156V10.3604H0.391602V22.3604ZM-2.89844 16.3604C-2.89844 17.9936 -2.53558 19.7119 -1.6076 21.3148L8.77752 15.3024C9.06097 15.792 9.10156 16.2115 9.10156 16.3604H-2.89844ZM-1.56796 21.3823C-0.632025 22.9513 0.691846 24.1453 2.23935 24.944L7.74307 14.2806C7.89116 14.357 8.0755 14.4765 8.26474 14.652C8.45553 14.8289 8.61515 15.0292 8.73788 15.2349L-1.56796 21.3823ZM2.34216 24.9958C3.93714 25.7807 5.60125 26.0664 7.15918 26.0664V14.0664C7.05695 14.0664 7.27575 14.0494 7.64026 14.2288L2.34216 24.9958ZM7.15918 26.0664C8.6567 26.0664 10.2932 25.8119 11.874 25.0604L6.7217 14.2228C7.11112 14.0377 7.32182 14.0664 7.15918 14.0664V26.0664ZM11.9112 25.0426C13.6299 24.2109 15.021 22.898 15.9467 21.2148L5.43216 15.4317C5.556 15.2066 5.73433 14.963 5.97339 14.7366C6.21219 14.5103 6.4615 14.3485 6.68449 14.2406L11.9112 25.0426ZM15.9096 21.2813C16.8906 19.55 17.1875 17.7159 17.1875 16.1113H5.1875C5.1875 16.2841 5.15233 15.9246 5.46932 15.3652L15.9096 21.2813ZM17.1875 16.1113C17.1875 14.4134 16.8328 12.4464 15.6496 10.6406L5.61209 17.2169C5.17113 16.5438 5.1875 16.0319 5.1875 16.1113H17.1875ZM15.6751 10.6798C14.5782 8.97675 13.027 7.78337 11.2772 7.08344L6.82048 18.2252C6.65666 18.1596 6.43243 18.0433 6.19305 17.8505C5.9504 17.655 5.74457 17.4229 5.58657 17.1776L15.6751 10.6798ZM11.3736 7.12298C9.80148 6.46224 8.18032 6.22949 6.66113 6.22949V18.2295C6.81416 18.2295 6.88742 18.2415 6.89555 18.2429C6.90184 18.244 6.83707 18.2331 6.72407 18.1856L11.3736 7.12298ZM6.66113 6.22949H4.72754V18.2295H6.66113V6.22949Z" fill="black" fill-opacity="0.1" mask="url(#path-1-outside-1_7_171)"/>
</svg>
